<svg width="48" height="48" viewBox="0 0 48 48" fill="none" xmlns="http://www.w3.org/2000/svg">
<path d="M21.0075 0L18.015 7.12219C17.4165 7.30175 16.8778 7.601 16.3392 7.90025L9.21696 4.90773L4.90773 9.21696L7.90025 16.3392C7.601 16.9377 7.3616 17.4165 7.12219 18.015L0 21.0075V26.9925L7.12219 29.985C7.3616 30.5835 7.601 31.0623 7.90025 31.6608L4.90773 38.783L9.21696 43.0923L16.3392 40.0997C16.8778 40.3391 17.4165 40.6384 18.015 40.8778L21.0075 48H26.9925L29.985 40.8778C30.5237 40.6384 31.1222 40.399 31.6608 40.0997L38.783 43.0923L43.0923 38.783L40.0997 31.6608C40.3391 31.1222 40.6384 30.5237 40.8778 29.985L48 26.9925V21.0075L40.8778 18.015C40.6983 17.4763 40.399 16.8778 40.0997 16.3392L43.0923 9.21696L38.783 4.90773L31.6608 7.90025C31.1222 7.66085 30.5237 7.3616 29.985 7.12219L26.9925 0L21.0075 0ZM24 14.9626C28.9676 14.9626 32.9776 18.9726 32.9776 23.9401C32.9776 28.9077 28.9676 32.9177 24 32.9177C19.0324 32.9177 15.0224 28.9077 15.0224 23.9401C15.0224 18.9726 19.0324 14.9626 24 14.9626Z" fill="white"/>
</svg>
